<?xml version="1.0" encoding="utf-8"?>
<!-- Uploaded to: SVG Repo, www.svgrepo.com, Generator: SVG Repo Mixer Tools -->
<svg version="1.1" id="Uploaded to svgrepo.com" xmlns="http://www.w3.org/2000/svg" xmlns:xlink="http://www.w3.org/1999/xlink" 
	 width="800px" height="800px" viewBox="0 0 32 32" xml:space="preserve">
<style type="text/css">
	.duotone_een{fill:#0B1719;}
	.duotone_twee{fill:#555D5E;}
</style>
<g>
	<g>
		<g>
			<path class="duotone_een" d="M14.704,19.997c0.114,0.114,0.174,0.269,0.156,0.426c-0.072,0.623-0.42,2.308-2.106,3.994
				c-1.062,1.062-4.244-2.12-6.367,0.003c-2.539,2.539,1.235-5.789,6.119-6.352c0.157-0.018,0.312,0.042,0.426,0.156L14.704,19.997z
				"/>
		</g>
		<g>
			<path class="duotone_een" d="M14.704,19.997c0.114,0.114,0.174,0.269,0.156,0.426c-0.072,0.623-0.42,2.308-2.106,3.994
				c-1.062,1.062-4.244-2.12-6.367,0.003c-2.539,2.539,1.235-5.789,6.119-6.352c0.157-0.018,0.312,0.042,0.426,0.156L14.704,19.997z
				"/>
		</g>
	</g>
	<path class="duotone_twee" d="M15.566,19.444l-2.081-2.081c-0.203-0.203-0.194-0.535,0.02-0.726L26.193,5.284
		c0.198-0.177,0.499-0.169,0.687,0.019l0.745,0.745c0.188,0.188,0.196,0.489,0.019,0.687L16.292,19.424
		C16.1,19.638,15.769,19.647,15.566,19.444z"/>
</g>
</svg>